<?xml version="1.0" standalone="no"?>
<!DOCTYPE svg PUBLIC "-//W3C//DTD SVG 20010904//EN"
 "http://www.w3.org/TR/2001/REC-SVG-20010904/DTD/svg10.dtd">
<svg version="1.0" xmlns="http://www.w3.org/2000/svg"
 width="700.000000pt" height="700.000000pt" viewBox="0 0 700.000000 700.000000"
 preserveAspectRatio="xMidYMid meet">
<metadata>
Created by potrace 1.11, written by Peter Selinger 2001-2013
</metadata>
<g transform="translate(0.000000,700.000000) scale(0.100000,-0.100000)"
fill="#000000" stroke="none">
<path d="M4473 6435 c-18 -7 -222 -71 -455 -140 -233 -70 -441 -133 -463 -141
-22 -7 -206 -64 -410 -125 -508 -152 -678 -204 -830 -250 -71 -23 -137 -42
-145 -44 -8 -2 -73 -21 -145 -43 -327 -100 -393 -120 -435 -126 -60 -9 -119
-52 -150 -106 l-25 -45 -3 -1393 -2 -1392 -60 30 c-32 16 -99 42 -147 56 -75
23 -108 27 -218 28 -132 0 -157 -2 -255 -30 -282 -80 -530 -338 -596 -619 -1
-5 -5 -23 -9 -40 -17 -75 -17 -253 -1 -336 41 -202 133 -356 309 -514 88 -79
287 -166 416 -182 332 -40 635 87 826 347 83 114 138 247 161 390 4 25 8 514
8 1087 1 573 4 1044 7 1047 5 5 271 89 319 101 8 2 105 32 215 65 198 61 269
83 850 260 165 50 351 107 414 127 62 19 118 36 125 38 6 1 18 5 26 8 8 3 31
10 50 15 19 5 89 26 155 47 253 78 317 96 321 92 6 -6 6 -1558 0 -1564 -2 -3
-16 3 -30 12 l-25 17 -1 390 c0 268 -3 395 -11 404 -8 10 -83 13 -358 14 -320
0 -349 -1 -362 -17 -13 -15 -15 -77 -15 -403 l1 -385 -73 -43 c-86 -51 -198
-153 -257 -237 -44 -61 -115 -199 -115 -222 0 -6 -5 -15 -11 -19 -17 -10 -119
-12 -125 -3 -3 5 -5 299 -5 654 0 564 -2 646 -15 660 -13 13 -65 15 -358 15
-307 0 -345 -2 -357 -17 -12 -13 -14 -261 -14 -1525 0 -1424 1 -1510 17 -1522
14 -10 98 -13 363 -12 296 1 347 3 355 16 6 9 10 274 10 667 l0 651 51 -1 52
-2 17 -65 c46 -170 118 -291 245 -413 49 -47 158 -127 173 -127 5 0 17 -8 28
-18 18 -17 19 -34 19 -351 0 -307 1 -334 17 -346 23 -15 701 -16 717 0 7 7 11
136 13 349 l3 339 69 41 c91 54 214 171 271 256 72 108 104 187 141 345 4 17
8 941 9 2055 2 1708 0 2031 -12 2066 -37 109 -177 174 -280 129z m-1616 -3254
c2 -438 6 -658 13 -665 6 -6 38 -11 73 -11 48 -1 61 -5 59 -16 -2 -8 -7 -63
-10 -124 l-7 -110 -46 2 c-87 5 -80 62 -82 -677 l-2 -655 -287 -1 c-159 0
-289 2 -289 5 -1 3 -2 659 -3 1458 l-1 1451 290 -1 290 -2 2 -654z m1333 333
c0 -178 -1 -324 -2 -324 -2 0 -28 7 -58 15 -126 35 -297 39 -425 11 -44 -10
-84 -19 -89 -20 -10 -1 -17 604 -8 631 3 10 73 12 293 12 l289 0 0 -325z m-68
-394 l68 -21 0 -772 0 -773 -52 -17 c-156 -48 -327 -48 -478 0 l-55 18 0 338
c0 312 -1 340 -18 351 -13 10 -73 13 -230 14 -116 0 -230 1 -251 1 l-39 1 6
98 c3 54 10 109 15 123 l10 24 237 0 c169 0 242 3 254 11 14 11 16 46 17 296
1 156 2 286 3 289 2 10 134 40 206 47 93 9 224 -3 307 -28z m-452 -1674 c159
-40 311 -37 493 9 l27 7 0 -269 0 -269 -290 0 c-159 0 -290 2 -291 5 -5 23 -3
531 1 531 3 0 30 -6 60 -14z"/>
<path d="M5415 3904 c-132 -28 -230 -81 -334 -179 -61 -58 -161 -194 -161
-219 0 -6 -4 -16 -10 -22 -5 -5 -19 -46 -31 -89 -21 -78 -21 -98 -23 -960 0
-484 2 -916 6 -960 8 -93 43 -203 90 -283 51 -88 189 -220 276 -266 139 -72
174 -78 477 -81 149 -2 282 -4 296 -4 23 -1 27 -6 33 -41 10 -65 57 -152 110
-202 82 -81 120 -88 473 -89 184 0 299 3 306 10 14 14 13 379 -1 393 -8 8 -68
12 -187 12 -96 0 -175 1 -175 2 0 2 28 18 61 36 63 33 156 116 200 178 25 35
68 120 75 149 2 9 8 34 14 56 21 82 22 150 23 1040 0 890 -2 961 -30 1035 -3
8 -7 20 -9 25 -18 72 -104 203 -181 277 -101 96 -207 152 -341 182 -87 20
-867 20 -957 0z m980 -86 c114 -36 195 -85 278 -170 88 -90 156 -220 173 -333
9 -61 9 -1785 0 -1873 -7 -75 -43 -182 -81 -242 -85 -134 -246 -225 -468 -265
-106 -19 -129 -35 -102 -71 13 -18 32 -19 329 -20 174 0 319 -4 323 -7 5 -6 8
-160 4 -230 -1 -17 -17 -18 -278 -15 -247 3 -282 5 -315 22 -79 38 -129 114
-152 227 -6 32 -17 64 -23 70 -9 9 -103 13 -325 14 -291 2 -318 4 -381 24
-237 77 -413 292 -435 533 -4 40 -7 465 -6 943 0 950 -1 923 60 1050 86 181
244 309 430 348 102 22 896 17 969 -5z"/>
<path d="M5898 3585 c-2 -2 -27 -5 -55 -8 -117 -12 -230 -94 -285 -205 l-33
-67 0 -925 0 -925 27 -57 c37 -79 98 -142 177 -181 61 -30 73 -32 166 -32 90
0 106 3 159 29 102 50 176 142 201 251 8 36 11 298 11 940 l-1 890 -31 65
c-55 116 -158 196 -281 218 -29 5 -54 8 -55 7z m145 -124 c52 -32 102 -91 123
-147 18 -47 19 -90 19 -944 l-1 -895 -26 -50 c-33 -63 -78 -108 -137 -138 -66
-32 -197 -31 -259 1 -58 31 -110 86 -138 147 l-24 50 0 895 0 895 24 52 c28
59 81 115 137 144 84 43 204 39 282 -10z"/>
</g>
</svg>
