<?xml version="1.0" standalone="no"?>
<!DOCTYPE svg PUBLIC "-//W3C//DTD SVG 20010904//EN"
 "http://www.w3.org/TR/2001/REC-SVG-20010904/DTD/svg10.dtd">
<svg version="1.0" xmlns="http://www.w3.org/2000/svg"
 width="700.000000pt" height="700.000000pt" viewBox="0 0 700.000000 700.000000"
 preserveAspectRatio="xMidYMid meet">
<metadata>
Created by potrace 1.11, written by Peter Selinger 2001-2013
</metadata>
<g transform="translate(0.000000,700.000000) scale(0.100000,-0.100000)"
fill="#000000" stroke="none">
<path d="M4365 6184 c-228 -75 -2653 -804 -2674 -804 -13 0 -38 -15 -57 -34
l-34 -34 0 -1336 0 -1336 -27 -30 c-38 -42 -75 -42 -165 3 -114 55 -186 71
-323 72 -99 0 -133 -4 -195 -23 -327 -103 -530 -374 -530 -707 0 -333 204
-605 530 -706 108 -34 293 -34 400 -1 212 67 369 199 460 387 78 160 74 87 77
1246 l4 1036 24 23 c25 23 79 40 1819 571 324 98 605 179 626 179 26 0 43 -7
61 -26 l24 -26 3 -779 c3 -866 6 -826 -63 -850 l-35 -13 0 -608 c0 -455 3
-608 12 -608 6 0 50 39 98 88 70 70 96 106 133 179 89 179 82 -6 82 2169 0
2099 4 1958 -57 1990 -39 20 -79 15 -193 -22z"/>
<path d="M2246 3898 c-14 -20 -16 -176 -16 -1470 0 -1435 0 -1448 20 -1468 19
-19 33 -20 359 -20 l340 0 20 26 c21 26 21 35 21 635 l0 609 255 0 255 0 0
-615 c0 -602 0 -615 20 -635 19 -19 33 -20 360 -20 327 0 341 1 360 20 20 20
20 33 20 1468 0 1294 -2 1450 -16 1470 l-15 22 -349 0 -349 0 -15 -22 c-14
-20 -16 -97 -16 -635 l0 -613 -255 0 -255 0 -2 621 c-3 601 -4 621 -22 635
-16 11 -82 14 -362 14 l-343 0 -15 -22z m614 -705 c0 -469 3 -614 13 -633 11
-22 20 -25 71 -28 l59 -3 -7 -46 c-3 -25 -6 -68 -6 -94 l0 -49 -39 0 c-23 0
-48 -8 -62 -19 l-24 -19 -3 -621 -2 -621 -255 0 -255 0 0 1370 0 1370 255 0
255 0 0 -607z m1280 324 l0 -283 -87 18 c-102 22 -292 19 -380 -6 l-53 -14 0
284 0 284 260 0 260 0 0 -283z m-70 -395 l65 -17 0 -725 0 -725 -65 -19 c-90
-26 -288 -26 -380 1 l-65 18 -5 330 -5 329 -25 13 c-18 9 -90 13 -254 13
l-229 0 7 80 c3 44 9 86 12 95 5 13 39 15 234 15 194 0 231 2 244 16 14 13 16
54 16 289 l0 274 73 15 c39 8 83 17 97 20 48 9 215 -4 280 -22z m-190 -1632
c47 0 124 8 173 18 l87 18 0 -233 0 -233 -260 0 -260 0 0 233 0 233 88 -18
c48 -10 125 -18 172 -18z"/>
<path d="M5302 3895 c-30 -7 -93 -32 -140 -55 -71 -35 -104 -60 -178 -134 -74
-74 -99 -107 -133 -176 -72 -148 -71 -120 -71 -1098 0 -947 0 -942 56 -1069
66 -150 207 -291 359 -358 101 -45 184 -55 453 -55 l250 0 6 -32 c11 -58 62
-152 107 -196 82 -80 112 -86 447 -90 267 -3 296 -2 313 14 17 16 19 33 19
194 0 125 -4 181 -12 193 -11 14 -36 17 -158 19 l-145 3 53 34 c107 68 195
192 238 337 17 54 18 130 21 959 4 1016 6 991 -70 1145 -54 111 -185 246 -294
303 -141 74 -172 77 -647 76 -307 0 -435 -4 -474 -14z m923 -100 c101 -21 186
-67 268 -144 85 -80 128 -144 164 -248 l28 -78 0 -890 c0 -976 1 -951 -61
-1081 -24 -52 -50 -87 -94 -127 -97 -90 -180 -124 -430 -175 -45 -9 -63 -51
-35 -82 17 -19 29 -20 322 -20 l303 0 0 -105 0 -105 -252 0 c-247 0 -254 1
-305 25 -64 29 -107 90 -123 174 -6 31 -17 67 -24 81 l-12 25 -304 6 c-332 7
-354 10 -475 71 -80 41 -202 163 -243 244 -71 140 -67 82 -67 1059 0 677 3
892 13 934 49 210 233 390 446 436 92 20 786 20 881 0z"/>
<path d="M5660 3574 c-95 -34 -187 -125 -228 -226 -16 -39 -17 -116 -17 -918
l0 -875 31 -65 c38 -79 109 -151 184 -188 49 -24 66 -27 155 -27 89 0 106 3
156 28 63 30 146 112 178 174 39 78 42 143 39 1003 l-3 825 -32 67 c-39 82
-106 151 -181 186 -72 34 -210 42 -282 16z m211 -99 c59 -20 112 -65 147 -123
l27 -47 3 -850 c2 -596 0 -862 -8 -890 -17 -62 -70 -126 -131 -160 -45 -24
-65 -29 -124 -29 -59 0 -79 5 -124 29 -60 33 -116 99 -131 156 -7 24 -9 336
-8 891 l3 855 30 48 c72 115 194 161 316 120z"/>
<path d="M3406 2942 c-25 -21 -62 -57 -81 -80 -42 -49 -105 -150 -105 -169 0
-10 29 -13 125 -13 l125 0 0 150 c0 83 -4 150 -9 150 -5 0 -29 -17 -55 -38z"/>
<path d="M3180 2163 c0 -10 21 -61 47 -113 39 -78 63 -111 133 -182 48 -49 92
-88 98 -88 9 0 12 55 12 200 l0 200 -145 0 c-131 0 -145 -2 -145 -17z"/>
</g>
</svg>
