<?xml version="1.0" encoding="UTF-8" standalone="no"?>
<!DOCTYPE svg PUBLIC "-//W3C//DTD SVG 1.1//EN" "http://www.w3.org/Graphics/SVG/1.1/DTD/svg11.dtd">
<svg width="100%" height="100%" viewBox="0 0 1000 1000" version="1.1" xmlns="http://www.w3.org/2000/svg" xmlns:xlink="http://www.w3.org/1999/xlink" xml:space="preserve" xmlns:serif="http://www.serif.com/" style="fill-rule:evenodd;clip-rule:evenodd;stroke-linecap:round;stroke-linejoin:round;stroke-miterlimit:1.5;">
    <g transform="matrix(1,0,0,1,-4426.36,0)">
        <g transform="matrix(1,0,0,1,4426.36,0)">
            <rect id="_-" serif:id=" " x="0" y="0" width="1000" height="1000" style="fill:none;"/>
            <g id="_-1" serif:id=" ">
                <path d="M646.479,232.443C536.05,170.657 373.474,182.766 269.036,300.857C261.446,309.439 254.534,318.126 248.253,326.887C159.125,451.204 197.25,590.212 234.302,649.815" style="fill:none;stroke:black;stroke-width:40px;"/>
                <path d="M389.823,784.479C445.535,810.63 512.022,809.337 572.282,793.309" style="fill:none;stroke:black;stroke-width:40px;"/>
                <path d="M711.394,719.799C764.149,668.822 813.784,581.82 806.411,480.172C803.92,445.825 794.92,409.805 777.332,372.938" style="fill:none;stroke:black;stroke-width:40px;"/>
                <g transform="matrix(28.2641,0,0,28.2641,619.956,229.266)">
                    <g id="rect112" transform="matrix(1.43989,0,0,0.988792,0.466218,5.2254)">
                        <rect x="-0.324" y="-1.555" width="0.648" height="16.499"/>
                    </g>
                    <g transform="matrix(0.0292079,0,0,0.0292079,-17.9547,-5.69149)">
                        <path d="M614.738,871.933C614.385,887.951 619.384,894.022 630.467,894.033C661.475,894.063 731.684,830.389 807.232,857.853C877.755,883.489 962.269,833.899 990.126,786.071C957.148,825.681 854.478,861.763 808.71,834.249C742.509,794.453 692.644,833.198 614.738,871.933Z"/>
                    </g>
                    <g id="path116" transform="matrix(0.004,0,0,-0.004,0,2.74969)">
                        <path d="M1095.89,687.422C1374.84,687.422 1638.85,542.964 1638.85,234.122C1638.85,-124.533 1359.9,-368.618 1125.78,-508.095C946.451,-612.702 747.198,-687.422 542.964,-687.422C264.01,-687.422 0,-542.964 0,-234.122C0,124.533 278.954,368.618 513.076,508.095C692.403,612.702 891.656,687.422 1095.89,687.422Z" style="fill-rule:nonzero;"/>
                    </g>
                </g>
                <g id="g15927" transform="matrix(3.05811,0,0,3.05811,-1799.42,1630.75)">
                    <path id="path12112-3-5-3-1" d="M672.477,-315.183C658.031,-307.416 650.334,-293.355 655.069,-282.777C660.119,-271.495 677.475,-268.31 693.808,-275.67C710.142,-283.029 719.299,-298.159 714.249,-309.441C709.198,-320.724 691.843,-323.908 675.509,-316.549C674.488,-316.089 673.44,-315.701 672.477,-315.183Z"/>
                    <g id="path5118-4-4-6-5" transform="matrix(1.20208,0,0,0.702752,-144.526,-91.6825)">
                        <path d="M715.219,-482.179L715.39,-391.664L715.561,-301.149L708.39,-301.149L708.988,-482.244L715.219,-482.179Z" style="fill-rule:nonzero;"/>
                    </g>
                </g>
                <g transform="matrix(1,0,0,1,-2,27.0611)">
                    <path d="M403.869,476.532C401.886,478.082 399.017,477.73 397.468,475.747C395.918,473.764 396.27,470.895 398.253,469.345C417.559,450.358 437.138,436.694 457.786,428.108C468.982,423.452 480.428,420.681 491.941,419.194C497.012,418.539 502.112,418.258 507.208,418.33C513.962,418.424 520.728,419.065 527.427,420.357C537.126,422.227 546.683,425.172 556.148,429.183C564.97,432.921 573.63,437.337 582.186,442.8C593.798,450.214 604.896,458.963 616.081,469.223C618.132,470.682 618.612,473.532 617.153,475.583C615.693,477.634 612.844,478.114 610.793,476.655C593.102,466.995 575.917,460.454 558.928,455.624C548.269,452.594 537.858,450.746 527.47,449.529C520.52,448.715 513.636,448.403 506.742,448.269C498.48,448.108 490.244,448.217 481.908,449.237C476.385,449.914 470.864,450.711 465.251,451.9C445.271,456.132 424.958,463.615 403.869,476.532Z"/>
                </g>
            </g>
        </g>
    </g>
</svg>
